# xmcd
#
# Track frame offsets: 
#        183
#        13909
#        25480
#        37168
#        50448
#        63124
#        76766
#        88420
#        100734
#        114760
#        128132
#        129948
#        138787
#        152746
#        160265
#        173190
#        185172
#        192873
#        198947
#        212126
#        224207
#        231009
#        242812
#        257329
#        269349
#        277082
#        288050
#
# Disc length: 3995 seconds
#
# Revision: 0
# Processed by: cddbd v1.5.1PL2 Copyright (c) Steve Scherf et al.
# Submitted via: ExactAudioCopy v0.95b3
#
DISCID=870f991b
DTITLE=Memphis Minnie - Complete Postwar Recordings- Vol 1 (1944-46)
DYEAR=1991
DGENRE=Blues
TTITLE0=Fashion Plate Daddy
TTITLE1=When You Love Me
TTITLE2=Please Set A Date
TTITLE3=Mean Mistreater Blues
TTITLE4=Love Come and Go
TTITLE5=True Love
TTITLE6=When My Man Comes Home
TTITLE7=I'm So Glad
TTITLE8=Hold Me Blues (1)
TTITLE9=Hold Me Blues (2)
TTITLE10=Hold Me Blues (3-incompl)
TTITLE11=Hold Me Blues (4-inc)
TTITLE12=Hold Me Blues (5)
TTITLE13=Hold Me Blues (6-inc)
TTITLE14=Hold Me Blues (7)
TTITLE15=Killer Diller (1)
TTITLE16=Killer Diller (2-inc)
TTITLE17=Killer Diller (3-inc)
TTITLE18=Killer Diller (4)
TTITLE19=Moaning Blues (1)
TTITLE20=Moaning Blues (2-inc)
TTITLE21=Moaning Blues (3)
TTITLE22=Moaning Blues (4)
TTITLE23=Got To Leave You (1)
TTITLE24=Got To Leave You (2-inc)
TTITLE25=Got To Leave You (3-inc)
TTITLE26=Got To Leave You (4)
EXTD=
EXTT0=
EXTT1=
EXTT2=
EXTT3=
EXTT4=
EXTT5=
EXTT6=
EXTT7=
EXTT8=
EXTT9=
EXTT10=
EXTT11=
EXTT12=
EXTT13=
EXTT14=
EXTT15=
EXTT16=
EXTT17=
EXTT18=
EXTT19=
EXTT20=
EXTT21=
EXTT22=
EXTT23=
EXTT24=
EXTT25=
EXTT26=
PLAYORDER=
